<?xml version="1.0" encoding="UTF-8"?>
<svg width="461px" height="367px" viewBox="0 0 461 367" version="1.1" xmlns="http://www.w3.org/2000/svg" xmlns:xlink="http://www.w3.org/1999/xlink">
    <!-- Generator: Sketch 47 (45396) - http://www.bohemiancoding.com/sketch -->
    <title>home</title>
    <desc>Created with Sketch.</desc>
    <defs></defs>
    <g id="Page-1" stroke="none" stroke-width="1" fill="none" fill-rule="evenodd">
        <g id="home" transform="translate(-1.000000, -1.000000)" fill-rule="nonzero" fill="#FFFFFF">
            <path d="M231.149,74.939 L66.986,210.274 C66.986,210.465 66.938,210.746 66.842,211.129 C66.748,211.509 66.698,211.785 66.698,211.981 L66.698,349.022 C66.698,353.97 68.507,358.258 72.124,361.869 C75.74,365.482 80.022,367.3 84.971,367.3 L194.601,367.3 L194.601,257.664 L267.698,257.664 L267.698,367.304 L377.327,367.304 C382.275,367.304 386.563,365.49 390.174,361.869 C393.791,358.262 395.606,353.971 395.606,349.022 L395.606,211.981 C395.606,211.221 395.502,210.647 395.318,210.274 L231.149,74.939 Z" id="Shape"></path>
            <path d="M458.122,179.438 L395.6,127.476 L395.6,10.989 C395.6,8.326 394.744,6.136 393.026,4.422 C391.322,2.71 389.132,1.854 386.463,1.854 L331.647,1.854 C328.981,1.854 326.792,2.71 325.077,4.422 C323.366,6.136 322.511,8.327 322.511,10.989 L322.511,66.662 L252.849,8.417 C246.765,3.468 239.531,0.994 231.155,0.994 C222.78,0.994 215.547,3.468 209.457,8.417 L4.172,179.438 C2.269,180.958 1.226,183.004 1.032,185.574 C0.839,188.142 1.504,190.385 3.029,192.287 L20.73,213.415 C22.255,215.127 24.251,216.174 26.726,216.557 C29.011,216.749 31.296,216.081 33.581,214.559 L231.149,49.817 L428.719,214.558 C430.245,215.886 432.24,216.549 434.715,216.549 L435.573,216.549 C438.044,216.173 440.036,215.119 441.569,213.411 L459.272,192.286 C460.794,190.38 461.461,188.141 461.263,185.57 C461.068,183.007 460.021,180.961 458.122,179.438 Z" id="Shape"></path>
        </g>
    </g>
</svg>